<?xml version="1.0" encoding="UTF-8"?>
<!-- Created with Inkscape (http://www.inkscape.org/) -->
<svg width="130mm" height="105mm" version="1.1" viewBox="0 0 130 105" xml:space="preserve" xmlns="http://www.w3.org/2000/svg"><g transform="translate(-82.407 -141.91)"><path d="m117.1 196.91v30l30.311 17.5v-30z" fill="#1b4e97" fill-opacity=".98431"/><path d="m177.72 196.91-30.311 17.5v30l30.311-17.5v-15z" fill="#93cbc3" fill-opacity=".82353"/><path d="m86.785 179.41v30l30.311 17.5v-30z" fill="#f9ae5d" fill-opacity=".87451"/><path d="m147.41 179.41-30.311 17.5v30l30.311-17.5v-15z" fill="#fa5205" fill-opacity=".85882"/><path d="m117.1 161.91-30.311 17.5v30l30.311-17.5v-15z" fill="#02439d" fill-opacity=".88235"/><path d="m117.1 161.91v30l30.311 17.5v-30z" fill="#93cac3" fill-opacity=".82353"/><path d="m147.41 179.41v30l30.311 17.5v-30z" fill="#f9ae5d" fill-opacity=".87451"/><path d="m208.03 179.41-30.311 17.5v30l30.311-17.5v-15z" fill="#fa5205" fill-opacity=".85882"/><path d="m177.72 161.91-30.311 17.5v30l30.311-17.5v-15z" fill="#02439d" fill-opacity=".88235"/><path d="m177.72 161.91v30l30.311 17.5v-30z" fill="#93cac3" fill-opacity=".82353"/><path d="m147.41 144.41-30.311 17.5v30l30.311-17.5v-15z" fill="#f9ae5d" fill-opacity=".87255"/><path d="m147.41 144.41v30l30.311 17.5v-30z" fill="#fa5205" fill-opacity=".85787"/></g></svg>
